<svg width="5693" height="1122" viewBox="0 0 5693 1122" fill="none" xmlns="http://www.w3.org/2000/svg">
<path fill-rule="evenodd" clip-rule="evenodd" d="M1010.34 616.57L1008.94 624.512V624.922C1006.81 636.713 1004.85 647.93 1002.39 659.066C977.174 775.256 912.16 862.87 806.532 915.847C677.814 980.534 549.915 972.346 428.403 894.394C401.136 876.79 377.145 853.535 353.809 830.608C300.995 778.45 248.427 725.964 195.859 673.477L195.531 673.15C153.362 631.063 111.194 588.894 68.7788 546.889C41.9217 520.277 27.9197 489.817 34.7978 451.824C41.0208 417.679 61.4914 394.261 93.589 378.458L83.1081 367.813C75.2475 359.789 67.4688 352.01 59.6081 344.313C44.7876 330.066 32.9964 314.099 27.9197 293.792C14.6549 239.996 44.2962 188.247 97.4374 172.526C98.9113 172.116 100.385 171.625 102.023 171.052L104.807 170.151C99.7301 129.374 112.258 95.4751 145.748 71.2381C179.483 46.8374 215.593 46.8372 251.211 63.8685C254.077 60.102 256.861 56.1719 259.645 52.3235L259.891 51.9139C266.114 43.1526 272.255 34.473 279.788 27.2675C317.371 -8.76047 376.326 -9.33363 413.5 27.0218C459.354 71.7292 504.635 117.092 549.915 162.536C568.912 181.533 587.827 200.611 606.905 219.526C628.194 240.815 649.483 262.104 670.855 283.311C672.656 285.113 674.703 286.75 678.715 287.569L676.177 276.515C674.212 268.163 672.328 259.893 670.363 251.623C667.743 240.815 665.123 230.006 662.339 219.28C656.689 196.599 650.957 173.918 646.454 150.991C635.4 94.8199 672.82 39.2223 728.253 27.1038C785.898 14.494 843.052 48.4748 856.316 105.055C874.904 184.48 898.485 262.104 932.466 336.371C939.917 352.501 947.778 368.468 955.639 384.435C962.681 398.847 969.804 413.176 976.601 427.751C994.451 466.235 1004.69 506.848 1009.6 549.427C1010.34 571.699 1010.34 593.643 1010.34 616.57ZM526.252 333.751C535.504 342.921 538.943 353.73 535.013 366.503C531.492 378.212 522.976 384.681 511.513 386.81C499.722 388.939 490.387 383.862 482.199 375.592C399.007 292.318 315.734 209.127 232.46 126.017C215.183 108.74 192.338 108.33 175.88 124.625C159.831 140.51 160.568 164.092 177.763 181.205L427.748 430.371C442.159 444.7 443.469 463.287 430.941 475.815C418.413 488.425 399.581 487.688 385.333 473.686C366.091 454.69 347.013 435.529 327.852 416.451L260.382 349.308C224.436 313.526 188.572 277.743 152.544 241.961C136.659 226.076 114.796 225.012 99.0749 238.768C80.324 255.144 80.5697 279.709 99.8938 298.951L205.357 404.087C256.206 454.69 307.054 505.293 357.903 555.977C372.15 570.143 372.887 587.993 360.277 600.603C347.749 613.213 329.572 612.803 315.57 599.211C306.235 590.204 297.147 581.033 287.976 571.862L275.53 559.416L241.467 525.517C214.446 498.66 187.507 471.803 160.65 444.946C148.204 432.582 133.875 428.324 117.58 434.793C91.2143 445.11 85.4827 477.289 106.117 498.087C129.289 521.341 152.544 544.432 175.798 567.605C188.49 580.132 201.099 592.742 213.709 605.352C235.572 627.132 257.352 648.913 279.133 670.776C325.478 717.202 371.823 763.711 418.823 809.647C511.267 900.126 655.625 922.971 771.078 866.718C932.139 788.276 996.17 597.082 913.961 437.74C862.212 337.599 822.581 233.2 798.426 122.987C796.87 115.863 793.349 108.658 788.928 102.844C775.663 85.2397 751.508 80.1631 731.775 89.8251C710.567 100.142 701.151 122.25 707.21 146.897C726.125 224.602 744.957 302.308 763.708 380.014C765.018 385.5 765.673 391.723 764.445 397.127C759.45 418.252 732.921 431.927 710.649 409.245C687.476 385.664 664.14 362.409 640.722 339.073L640.558 338.909L614.274 312.707C535.177 233.609 456.079 154.512 376.981 75.4959C358.722 57.2363 336.204 56.0899 319.746 72.3843C303.206 88.7606 304.107 111.524 322.121 129.538C355.283 162.864 388.608 196.108 422.262 229.843L526.252 333.751Z" fill="#040404"/>
<path d="M0 786.799C0.98258 785.407 1.96521 784.015 2.86591 782.705C6.22305 777.71 9.33454 773.043 13.5924 769.932C29.2318 758.386 50.6848 765.51 59.2005 784.916C72.711 815.212 90.6432 842.397 113.57 866.388C144.276 898.568 180.631 922.231 222.391 937.543C234.918 942.129 241.715 951.627 242.534 964.728C243.271 977.502 237.211 987.245 225.912 993.059C216.495 997.972 206.751 996.58 197.171 992.731C108.903 958.259 44.8713 898.076 4.99491 812.183C3.84857 809.644 2.62043 807.27 0.737155 804.568C0.000219868 798.836 0 793.268 0 786.799Z" fill="#040404"/>
<path d="M297.395 867.126C296.822 852.224 287.815 842.316 268.409 836.093C240.242 825.039 216.25 809.072 195.616 788.029C177.93 769.933 164.583 749.135 154.102 726.208C147.224 711.142 131.994 704.837 116.601 709.75C102.599 714.335 93.9192 728.746 96.7851 743.813C97.8495 749.053 100.306 754.13 102.681 759.043C134.942 825.121 185.463 870.975 254.98 895.457C277.007 903.154 298.214 888.825 297.395 867.126Z" fill="#040404"/>
<path d="M4989.95 904.709V326.952H5169.27V432.252H5175.33C5185.89 394.177 5203.09 365.846 5227 347.259C5250.91 328.508 5278.75 319.092 5310.43 319.092C5319.03 319.092 5327.79 319.665 5336.88 320.975C5345.97 321.958 5354.41 323.595 5362.18 325.806V485.721C5353.34 482.691 5341.8 480.317 5327.47 478.515C5313.38 476.796 5300.77 475.895 5289.72 475.895C5267.77 475.895 5248.04 480.808 5230.44 490.552C5213.08 500.132 5199.32 513.561 5189.25 530.838C5179.42 547.869 5174.51 567.93 5174.51 591.021V904.709H4989.95Z" fill="black"/>
<path d="M4698.86 655.299V326.953H4883.09V904.71H4707.21V797.118H4701.15C4688.3 832.49 4666.43 860.576 4635.48 881.374C4604.78 901.926 4567.6 912.243 4524.12 912.243C4484.57 912.243 4449.86 903.154 4419.89 885.14C4389.92 867.044 4366.66 841.907 4350.04 809.564C4333.42 776.893 4324.99 738.818 4324.74 695.175V326.953H4509.38V659.065C4509.63 690.426 4517.9 715.154 4534.28 733.168C4550.65 751.264 4572.92 760.271 4601.09 760.271C4619.52 760.271 4635.97 756.259 4650.55 748.234C4665.37 739.964 4677.08 728.01 4685.68 712.452C4694.44 696.731 4698.86 677.652 4698.86 655.299Z" fill="black"/>
<path d="M3947.84 915.6C3886.92 915.6 3834.6 903.154 3790.79 878.344C3747.31 853.288 3713.66 818.407 3690 773.781C3666.66 728.91 3654.95 676.915 3654.95 617.715C3654.95 558.514 3666.66 506.274 3690 461.648C3713.66 416.695 3747.31 381.895 3790.79 357.085C3834.6 331.948 3886.92 319.42 3947.84 319.42C4008.76 319.42 4061 331.948 4104.56 357.085C4148.29 381.895 4181.94 416.695 4205.36 461.648C4228.94 506.274 4240.81 558.269 4240.81 617.715C4240.81 677.161 4228.94 728.91 4205.36 773.781C4181.94 818.407 4148.29 853.288 4104.56 878.344C4061 903.154 4008.76 915.6 3947.84 915.6ZM3948.99 776.811C3971.18 776.811 3989.93 770.015 4005.24 756.504C4020.64 742.912 4032.26 724.161 4040.37 700.088C4048.64 676.014 4052.81 648.175 4052.81 616.568C4052.81 584.962 4048.64 556.385 4040.37 532.312C4032.26 508.239 4020.64 489.488 4005.24 475.896C3989.93 462.385 3971.18 455.589 3948.99 455.589C3926.8 455.589 3906.74 462.385 3890.85 475.896C3875.29 489.488 3863.34 508.239 3854.99 532.312C3846.96 556.385 3842.95 584.471 3842.95 616.568C3842.95 648.666 3846.96 676.014 3854.99 700.088C3863.34 724.161 3875.29 742.912 3890.85 756.504C3906.74 770.015 3926.06 776.811 3948.99 776.811Z" fill="black"/>
<path d="M3385.72 326.954H3570.29V928.784C3570.29 976.358 3560.46 1014.27 3540.89 1042.35C3521.48 1070.44 3494.05 1090.58 3458.6 1102.86C3423.06 1115.15 3381.22 1121.29 3332.83 1121.29C3326.28 1121.29 3320.14 1121.21 3314.32 1120.96C3308.59 1120.71 3302.29 1120.47 3295.49 1120.22V980.697C3299.99 981.189 3304.01 981.516 3307.53 981.762C3311.13 982.008 3314.65 982.171 3318.17 982.171C3343.56 982.171 3361.16 977.422 3370.99 967.842C3380.81 958.59 3385.72 944.342 3385.72 925.018V326.954ZM3477.84 259.648C3451.89 259.648 3429.61 251.132 3411.03 234.101C3392.36 216.742 3383.1 195.944 3383.1 171.625C3383.1 147.306 3392.36 126.999 3411.03 109.968C3429.61 92.691 3451.89 84.0117 3477.84 84.0117C3503.8 84.0117 3526.23 92.691 3544.66 109.968C3563.24 126.999 3572.58 147.552 3572.58 171.625C3572.58 195.698 3563.24 216.742 3544.66 234.101C3526.23 251.132 3503.96 259.648 3477.84 259.648Z" fill="black"/>
<path d="M2907.21 575.218V904.71H2722.65V326.953H2898.12V432.99H2904.59C2917.44 397.699 2939.31 369.941 2970.26 349.88C3001.21 329.573 3038.06 319.42 3080.88 319.42C3123.7 319.42 3157.03 328.591 3186.92 346.932C3217.13 364.946 3240.55 390.248 3257.17 422.836C3274.04 455.262 3282.31 493.091 3282.06 536.488V904.71H3097.5V572.598C3097.75 540.5 3089.56 515.363 3072.94 497.349C3056.56 479.253 3033.8 470.246 3004.65 470.246C2985.24 470.246 2968.13 474.504 2953.31 483.019C2938.65 491.289 2927.35 503.244 2919.33 518.802C2911.47 534.359 2907.45 553.11 2907.21 575.218Z" fill="black"/>
<path d="M2345.75 915.6C2284.83 915.6 2232.5 903.154 2188.7 878.344C2145.14 853.288 2111.56 818.407 2087.9 773.781C2064.48 728.91 2052.77 676.915 2052.77 617.715C2052.77 558.514 2064.48 506.274 2087.9 461.648C2111.56 416.695 2145.14 381.895 2188.7 357.085C2232.5 331.948 2284.83 319.42 2345.75 319.42C2406.67 319.42 2458.91 331.948 2502.39 357.085C2546.19 381.895 2579.76 416.695 2603.18 461.648C2626.85 506.274 2638.72 558.269 2638.72 617.715C2638.72 677.161 2626.85 728.91 2603.18 773.781C2579.76 818.407 2546.19 853.288 2502.39 878.344C2458.91 903.154 2406.67 915.6 2345.75 915.6ZM2346.89 776.811C2369 776.811 2387.75 770.015 2403.15 756.504C2418.46 742.912 2430.17 724.161 2438.27 700.088C2446.54 676.014 2450.72 648.175 2450.72 616.568C2450.72 584.962 2446.54 556.385 2438.27 532.312C2430.17 508.239 2418.46 489.488 2403.15 475.896C2387.75 462.385 2369 455.589 2346.89 455.589C2324.78 455.589 2304.56 462.385 2288.76 475.896C2273.12 489.488 2261.16 508.239 2252.89 532.312C2244.79 556.385 2240.77 584.471 2240.77 616.568C2240.77 648.666 2244.79 676.014 2252.89 700.088C2261.16 724.161 2273.12 742.912 2288.76 756.504C2304.56 770.015 2323.97 776.811 2346.89 776.811Z" fill="black"/>
<path d="M1379.79 904.713V134.371H1702.16C1760.05 134.371 1808.44 142.559 1847.5 158.854C1886.72 175.148 1916.2 197.993 1935.85 227.307C1955.66 256.62 1965.65 290.601 1965.65 329.249C1965.65 358.563 1959.51 384.765 1947.15 407.856C1934.78 430.619 1917.83 449.615 1896.22 464.6C1874.52 479.666 1849.46 490.229 1821.05 496.206V503.739C1852.25 505.213 1881.07 513.647 1907.52 528.959C1934.21 544.271 1955.58 565.56 1971.71 592.908C1987.76 619.929 1995.87 652.027 1995.87 689.201C1995.87 730.551 1985.3 767.48 1964.1 800.151C1942.97 832.494 1912.43 858.041 1872.39 876.874C1832.35 895.379 1783.79 904.713 1726.72 904.713H1379.79ZM1566.64 754.625H1682.1C1722.63 754.625 1752.51 746.927 1771.59 731.698C1791 716.386 1800.66 695.015 1800.66 667.748C1800.66 647.933 1795.99 630.901 1786.74 616.572C1777.41 601.997 1764.14 590.861 1747.03 583.082C1729.92 575.058 1709.45 571.046 1685.54 571.046H1566.64V754.625ZM1566.64 451.089H1670.06C1690.45 451.089 1708.54 447.732 1724.43 440.936C1740.23 434.14 1752.6 424.396 1761.44 411.622C1770.45 398.767 1775.03 383.373 1775.03 365.359C1775.03 339.485 1765.78 319.178 1747.44 304.357C1729.1 289.619 1704.29 282.167 1673.09 282.167H1566.64V451.089Z" fill="black"/>
<path d="M5689.54 163.275L5672.19 697.717H5517.02L5499.66 163.275H5689.54ZM5594.4 944.508C5567.46 944.508 5544.37 934.928 5524.96 915.931C5505.8 896.853 5496.3 873.762 5496.3 846.659C5496.3 819.557 5505.8 797.449 5524.96 778.616C5544.37 759.537 5567.46 750.039 5594.4 750.039C5621.34 750.039 5643.12 759.537 5662.77 778.616C5682.67 797.449 5692.57 820.13 5692.57 846.659C5692.57 864.755 5687.91 881.132 5678.57 895.952C5669.57 910.773 5657.61 922.564 5642.71 931.325C5628.13 940.086 5612 944.508 5594.4 944.508Z" fill="#007CFF"/>
</svg>
